<?xml version="1.0"?>
<!-- Created with xTool Creative Space (https://www.xtool.com/pages/software) -->
<svg xmlns="http://www.w3.org/2000/svg" xmlns:xlink="http://www.w3.org/1999/xlink" xmlns:xcs="https://www.xtool.com/pages/software" version="1.1" preserveAspectRatio="xMinYMin meet" width="162.2705993652334mm" height="123.78070068359379mm" viewBox="137.72940063476653 55.720290053610725 162.2705993652334 123.78070068359379"><style></style>
<path transform="matrix(1,0,0,1,137.729401,520.521285)" stroke="#ff7f56" fill="none" vector-effect="non-scaling-stroke" data-view-type="laser" d="M 22.4997 -464.0766 L 28.4461 -458.1299 L 30.5676 -460.2512 L 41.1740 -449.6447 L 39.0528 -447.5236 L 44.9997 -441.5766 L 44.9997 -430.3268 L 41.9998 -430.3268 L 41.9998 -415.3270 L 44.9997 -415.3270 L 44.9997 -404.0774 L 29.9998 -404.0774 L 29.9998 -407.0772 L 15.0000 -407.0772 L 15.0000 -404.0774 L 0.0000 -404.0774 L 0.0000 -415.3270 L 2.9997 -415.3270 L 2.9997 -430.3268 L 0.0000 -430.3268 L 0.0000 -441.5766 L 5.9466 -447.5236 L 3.8255 -449.6447 L 14.4322 -460.2512 L 16.5530 -458.1299 L 22.4997 -464.0766 " fill-rule="nonzero"></path><path transform="matrix(1,0,0,1,137.729401,520.521285)" stroke="#ff7f56" fill="none" vector-effect="non-scaling-stroke" data-view-type="laser" d="M 22.4997 -405.0196 L 28.4461 -399.0729 L 30.5676 -401.1942 L 41.1740 -390.5876 L 39.0528 -388.4666 L 44.9997 -382.5196 L 44.9997 -371.2699 L 41.9998 -371.2699 L 41.9998 -356.2700 L 44.9997 -356.2700 L 44.9997 -345.0204 L 29.9998 -345.0204 L 29.9998 -348.0202 L 15.0000 -348.0202 L 15.0000 -345.0204 L 0.0000 -345.0204 L 0.0000 -356.2700 L 2.9997 -356.2700 L 2.9997 -371.2699 L 0.0000 -371.2699 L 0.0000 -382.5196 L 5.9466 -388.4666 L 3.8255 -390.5876 L 14.4322 -401.1942 L 16.5530 -399.0729 L 22.4997 -405.0196 " fill-rule="nonzero"></path><path transform="matrix(1,0,0,1,137.729401,520.521285)" stroke="#ff7f56" fill="none" vector-effect="non-scaling-stroke" data-view-type="laser" d="M 20.9999 -430.3267 L 20.9999 -433.3267 L 20.9899 -433.5728 L 20.9606 -433.8133 L 20.9127 -434.0477 L 20.8469 -434.2750 L 20.7641 -434.4945 L 20.6651 -434.7054 L 20.5505 -434.9070 L 20.4211 -435.0985 L 20.2778 -435.2791 L 20.1213 -435.4480 L 19.9523 -435.6045 L 19.7717 -435.7478 L 19.5803 -435.8772 L 19.3787 -435.9918 L 19.1677 -436.0909 L 18.9482 -436.1737 L 18.7209 -436.2395 L 18.4866 -436.2874 L 18.2460 -436.3167 L 18.0000 -436.3266 L 15.0000 -436.3266 L 14.7539 -436.3167 L 14.5133 -436.2874 L 14.2790 -436.2395 L 14.0516 -436.1737 L 13.8321 -436.0909 L 13.6212 -435.9918 L 13.4196 -435.8772 L 13.2281 -435.7478 L 13.0475 -435.6045 L 12.8786 -435.4480 L 12.7221 -435.2791 L 12.5787 -435.0985 L 12.4494 -434.9070 L 12.3348 -434.7054 L 12.2357 -434.4945 L 12.1529 -434.2750 L 12.0872 -434.0477 L 12.0392 -433.8133 L 12.0099 -433.5728 L 12.0000 -433.3267 L 12.0000 -430.3267 L 12.0099 -430.0807 L 12.0392 -429.8401 L 12.0872 -429.6058 L 12.1529 -429.3785 L 12.2357 -429.1590 L 12.3348 -428.9481 L 12.4494 -428.7465 L 12.5787 -428.5550 L 12.7221 -428.3744 L 12.8786 -428.2054 L 13.0475 -428.0489 L 13.2281 -427.9056 L 13.4196 -427.7762 L 13.6212 -427.6616 L 13.8321 -427.5625 L 14.0516 -427.4797 L 14.2790 -427.4139 L 14.5133 -427.3660 L 14.7539 -427.3367 L 15.0000 -427.3267 L 18.0000 -427.3267 L 18.2460 -427.3367 L 18.4866 -427.3660 L 18.7209 -427.4139 L 18.9482 -427.4797 L 19.1677 -427.5625 L 19.3787 -427.6616 L 19.5803 -427.7762 L 19.7717 -427.9056 L 19.9523 -428.0489 L 20.1213 -428.2054 L 20.2778 -428.3744 L 20.4211 -428.5550 L 20.5505 -428.7465 L 20.6651 -428.9481 L 20.7641 -429.1590 L 20.8469 -429.3785 L 20.9127 -429.6058 L 20.9606 -429.8401 L 20.9899 -430.0807 L 20.9999 -430.3267 " fill-rule="nonzero"></path><path transform="matrix(1,0,0,1,137.729401,520.521285)" stroke="#ff7f56" fill="none" vector-effect="non-scaling-stroke" data-view-type="laser" d="M 20.9999 -418.3270 L 20.9999 -421.3270 L 20.9899 -421.5730 L 20.9606 -421.8136 L 20.9127 -422.0479 L 20.8469 -422.2752 L 20.7641 -422.4947 L 20.6651 -422.7057 L 20.5505 -422.9073 L 20.4211 -423.0987 L 20.2778 -423.2794 L 20.1213 -423.4483 L 19.9523 -423.6048 L 19.7717 -423.7481 L 19.5803 -423.8775 L 19.3787 -423.9921 L 19.1677 -424.0912 L 18.9482 -424.1740 L 18.7209 -424.2398 L 18.4866 -424.2877 L 18.2460 -424.3170 L 18.0000 -424.3270 L 15.0000 -424.3270 L 14.7539 -424.3170 L 14.5133 -424.2877 L 14.2790 -424.2398 L 14.0516 -424.1740 L 13.8321 -424.0912 L 13.6212 -423.9921 L 13.4196 -423.8775 L 13.2281 -423.7481 L 13.0475 -423.6048 L 12.8786 -423.4483 L 12.7221 -423.2794 L 12.5787 -423.0987 L 12.4494 -422.9073 L 12.3348 -422.7057 L 12.2357 -422.4947 L 12.1529 -422.2752 L 12.0872 -422.0479 L 12.0392 -421.8136 L 12.0099 -421.5730 L 12.0000 -421.3270 L 12.0000 -418.3270 L 12.0099 -418.0809 L 12.0392 -417.8404 L 12.0872 -417.6061 L 12.1529 -417.3788 L 12.2357 -417.1593 L 12.3348 -416.9483 L 12.4494 -416.7467 L 12.5787 -416.5552 L 12.7221 -416.3746 L 12.8786 -416.2057 L 13.0475 -416.0492 L 13.2281 -415.9058 L 13.4196 -415.7765 L 13.6212 -415.6618 L 13.8321 -415.5627 L 14.0516 -415.4799 L 14.2790 -415.4142 L 14.5133 -415.3662 L 14.7539 -415.3369 L 15.0000 -415.3270 L 18.0000 -415.3270 L 18.2460 -415.3369 L 18.4866 -415.3662 L 18.7209 -415.4142 L 18.9482 -415.4799 L 19.1677 -415.5627 L 19.3787 -415.6618 L 19.5803 -415.7765 L 19.7717 -415.9058 L 19.9523 -416.0492 L 20.1213 -416.2057 L 20.2778 -416.3746 L 20.4211 -416.5552 L 20.5505 -416.7467 L 20.6651 -416.9483 L 20.7641 -417.1593 L 20.8469 -417.3788 L 20.9127 -417.6061 L 20.9606 -417.8404 L 20.9899 -418.0809 L 20.9999 -418.3270 " fill-rule="nonzero"></path><path transform="matrix(1,0,0,1,137.729401,520.521285)" stroke="#ff7f56" fill="none" vector-effect="non-scaling-stroke" data-view-type="laser" d="M 20.9999 -371.2697 L 20.9999 -374.2697 L 20.9899 -374.5158 L 20.9606 -374.7563 L 20.9127 -374.9906 L 20.8469 -375.2179 L 20.7641 -375.4374 L 20.6651 -375.6484 L 20.5505 -375.8500 L 20.4211 -376.0415 L 20.2778 -376.2221 L 20.1213 -376.3910 L 19.9523 -376.5475 L 19.7717 -376.6909 L 19.5803 -376.8202 L 19.3787 -376.9348 L 19.1677 -377.0339 L 18.9482 -377.1167 L 18.7209 -377.1825 L 18.4866 -377.2304 L 18.2460 -377.2597 L 18.0000 -377.2697 L 15.0000 -377.2697 L 14.7539 -377.2597 L 14.5133 -377.2304 L 14.2790 -377.1825 L 14.0516 -377.1167 L 13.8321 -377.0339 L 13.6212 -376.9348 L 13.4196 -376.8202 L 13.2281 -376.6909 L 13.0475 -376.5475 L 12.8786 -376.3910 L 12.7221 -376.2221 L 12.5787 -376.0415 L 12.4494 -375.8500 L 12.3348 -375.6484 L 12.2357 -375.4374 L 12.1529 -375.2179 L 12.0872 -374.9906 L 12.0392 -374.7563 L 12.0099 -374.5158 L 12.0000 -374.2697 L 12.0000 -371.2697 L 12.0099 -371.0237 L 12.0392 -370.7831 L 12.0872 -370.5488 L 12.1529 -370.3215 L 12.2357 -370.1020 L 12.3348 -369.8911 L 12.4494 -369.6895 L 12.5787 -369.4980 L 12.7221 -369.3174 L 12.8786 -369.1484 L 13.0475 -368.9919 L 13.2281 -368.8486 L 13.4196 -368.7192 L 13.6212 -368.6046 L 13.8321 -368.5055 L 14.0516 -368.4227 L 14.2790 -368.3569 L 14.5133 -368.3090 L 14.7539 -368.2797 L 15.0000 -368.2697 L 18.0000 -368.2697 L 18.2460 -368.2797 L 18.4866 -368.3090 L 18.7209 -368.3569 L 18.9482 -368.4227 L 19.1677 -368.5055 L 19.3787 -368.6046 L 19.5803 -368.7192 L 19.7717 -368.8486 L 19.9523 -368.9919 L 20.1213 -369.1484 L 20.2778 -369.3174 L 20.4211 -369.4980 L 20.5505 -369.6895 L 20.6651 -369.8911 L 20.7641 -370.1020 L 20.8469 -370.3215 L 20.9127 -370.5488 L 20.9606 -370.7831 L 20.9899 -371.0237 L 20.9999 -371.2697 " fill-rule="nonzero"></path><path transform="matrix(1,0,0,1,137.729401,520.521285)" stroke="#ff7f56" fill="none" vector-effect="non-scaling-stroke" data-view-type="laser" d="M 20.9999 -359.2699 L 20.9999 -362.2700 L 20.9899 -362.5160 L 20.9606 -362.7566 L 20.9127 -362.9909 L 20.8469 -363.2182 L 20.7641 -363.4377 L 20.6651 -363.6486 L 20.5505 -363.8502 L 20.4211 -364.0417 L 20.2778 -364.2223 L 20.1213 -364.3913 L 19.9523 -364.5478 L 19.7717 -364.6911 L 19.5803 -364.8205 L 19.3787 -364.9351 L 19.1677 -365.0342 L 18.9482 -365.1170 L 18.7209 -365.1828 L 18.4866 -365.2307 L 18.2460 -365.2600 L 18.0000 -365.2699 L 15.0000 -365.2699 L 14.7539 -365.2600 L 14.5133 -365.2307 L 14.2790 -365.1828 L 14.0516 -365.1170 L 13.8321 -365.0342 L 13.6212 -364.9351 L 13.4196 -364.8205 L 13.2281 -364.6911 L 13.0475 -364.5478 L 12.8786 -364.3913 L 12.7221 -364.2223 L 12.5787 -364.0417 L 12.4494 -363.8502 L 12.3348 -363.6486 L 12.2357 -363.4377 L 12.1529 -363.2182 L 12.0872 -362.9909 L 12.0392 -362.7566 L 12.0099 -362.5160 L 12.0000 -362.2700 L 12.0000 -359.2699 L 12.0099 -359.0239 L 12.0392 -358.7834 L 12.0872 -358.5491 L 12.1529 -358.3218 L 12.2357 -358.1023 L 12.3348 -357.8914 L 12.4494 -357.6898 L 12.5787 -357.4983 L 12.7221 -357.3177 L 12.8786 -357.1487 L 13.0475 -356.9922 L 13.2281 -356.8488 L 13.4196 -356.7195 L 13.6212 -356.6048 L 13.8321 -356.5057 L 14.0516 -356.4229 L 14.2790 -356.3572 L 14.5133 -356.3092 L 14.7539 -356.2799 L 15.0000 -356.2700 L 18.0000 -356.2700 L 18.2460 -356.2799 L 18.4866 -356.3092 L 18.7209 -356.3572 L 18.9482 -356.4229 L 19.1677 -356.5057 L 19.3787 -356.6048 L 19.5803 -356.7195 L 19.7717 -356.8488 L 19.9523 -356.9922 L 20.1213 -357.1487 L 20.2778 -357.3177 L 20.4211 -357.4983 L 20.5505 -357.6898 L 20.6651 -357.8914 L 20.7641 -358.1023 L 20.8469 -358.3218 L 20.9127 -358.5491 L 20.9606 -358.7834 L 20.9899 -359.0239 L 20.9999 -359.2699 " fill-rule="nonzero"></path><path transform="matrix(1,0,0,1,137.729401,520.521285)" stroke="#ff7f56" fill="none" vector-effect="non-scaling-stroke" data-view-type="laser" d="M 32.9998 -430.3267 L 32.9998 -433.3267 L 32.9899 -433.5728 L 32.9606 -433.8133 L 32.9126 -434.0477 L 32.8469 -434.2750 L 32.7641 -434.4945 L 32.6650 -434.7054 L 32.5503 -434.9070 L 32.4210 -435.0985 L 32.2776 -435.2791 L 32.1211 -435.4480 L 31.9522 -435.6045 L 31.7716 -435.7478 L 31.5801 -435.8772 L 31.3785 -435.9918 L 31.1675 -436.0909 L 30.9480 -436.1737 L 30.7207 -436.2395 L 30.4864 -436.2874 L 30.2459 -436.3167 L 29.9998 -436.3266 L 26.9998 -436.3266 L 26.7537 -436.3167 L 26.5131 -436.2874 L 26.2788 -436.2395 L 26.0515 -436.1737 L 25.8320 -436.0909 L 25.6210 -435.9918 L 25.4194 -435.8772 L 25.2280 -435.7478 L 25.0474 -435.6045 L 24.8784 -435.4480 L 24.7219 -435.2791 L 24.5786 -435.0985 L 24.4492 -434.9070 L 24.3346 -434.7054 L 24.2356 -434.4945 L 24.1528 -434.2750 L 24.0870 -434.0477 L 24.0391 -433.8133 L 24.0098 -433.5728 L 23.9998 -433.3267 L 23.9998 -430.3267 L 24.0098 -430.0807 L 24.0391 -429.8401 L 24.0870 -429.6058 L 24.1528 -429.3785 L 24.2356 -429.1590 L 24.3346 -428.9481 L 24.4492 -428.7465 L 24.5786 -428.5550 L 24.7219 -428.3744 L 24.8784 -428.2054 L 25.0474 -428.0489 L 25.2280 -427.9056 L 25.4194 -427.7762 L 25.6210 -427.6616 L 25.8320 -427.5625 L 26.0515 -427.4797 L 26.2788 -427.4139 L 26.5131 -427.3660 L 26.7537 -427.3367 L 26.9998 -427.3267 L 29.9998 -427.3267 L 30.2459 -427.3367 L 30.4864 -427.3660 L 30.7207 -427.4139 L 30.9480 -427.4797 L 31.1675 -427.5625 L 31.3785 -427.6616 L 31.5801 -427.7762 L 31.7716 -427.9056 L 31.9522 -428.0489 L 32.1211 -428.2054 L 32.2776 -428.3744 L 32.4210 -428.5550 L 32.5503 -428.7465 L 32.6650 -428.9481 L 32.7641 -429.1590 L 32.8469 -429.3785 L 32.9126 -429.6058 L 32.9606 -429.8401 L 32.9899 -430.0807 L 32.9998 -430.3267 " fill-rule="nonzero"></path><path transform="matrix(1,0,0,1,137.729401,520.521285)" stroke="#ff7f56" fill="none" vector-effect="non-scaling-stroke" data-view-type="laser" d="M 32.9998 -418.3270 L 32.9998 -421.3270 L 32.9899 -421.5730 L 32.9606 -421.8136 L 32.9126 -422.0479 L 32.8469 -422.2752 L 32.7641 -422.4947 L 32.6650 -422.7057 L 32.5503 -422.9073 L 32.4210 -423.0987 L 32.2776 -423.2794 L 32.1211 -423.4483 L 31.9522 -423.6048 L 31.7716 -423.7481 L 31.5801 -423.8775 L 31.3785 -423.9921 L 31.1675 -424.0912 L 30.9480 -424.1740 L 30.7207 -424.2398 L 30.4864 -424.2877 L 30.2459 -424.3170 L 29.9998 -424.3270 L 26.9998 -424.3270 L 26.7537 -424.3170 L 26.5131 -424.2877 L 26.2788 -424.2398 L 26.0515 -424.1740 L 25.8320 -424.0912 L 25.6210 -423.9921 L 25.4194 -423.8775 L 25.2280 -423.7481 L 25.0474 -423.6048 L 24.8784 -423.4483 L 24.7219 -423.2794 L 24.5786 -423.0987 L 24.4492 -422.9073 L 24.3346 -422.7057 L 24.2356 -422.4947 L 24.1528 -422.2752 L 24.0870 -422.0479 L 24.0391 -421.8136 L 24.0098 -421.5730 L 23.9998 -421.3270 L 23.9998 -418.3270 L 24.0098 -418.0809 L 24.0391 -417.8404 L 24.0870 -417.6061 L 24.1528 -417.3788 L 24.2356 -417.1593 L 24.3346 -416.9483 L 24.4492 -416.7467 L 24.5786 -416.5552 L 24.7219 -416.3746 L 24.8784 -416.2057 L 25.0474 -416.0492 L 25.2280 -415.9058 L 25.4194 -415.7765 L 25.6210 -415.6618 L 25.8320 -415.5627 L 26.0515 -415.4799 L 26.2788 -415.4142 L 26.5131 -415.3662 L 26.7537 -415.3369 L 26.9998 -415.3270 L 29.9998 -415.3270 L 30.2459 -415.3369 L 30.4864 -415.3662 L 30.7207 -415.4142 L 30.9480 -415.4799 L 31.1675 -415.5627 L 31.3785 -415.6618 L 31.5801 -415.7765 L 31.7716 -415.9058 L 31.9522 -416.0492 L 32.1211 -416.2057 L 32.2776 -416.3746 L 32.4210 -416.5552 L 32.5503 -416.7467 L 32.6650 -416.9483 L 32.7641 -417.1593 L 32.8469 -417.3788 L 32.9126 -417.6061 L 32.9606 -417.8404 L 32.9899 -418.0809 L 32.9998 -418.3270 " fill-rule="nonzero"></path><path transform="matrix(1,0,0,1,137.729401,520.521285)" stroke="#ff7f56" fill="none" vector-effect="non-scaling-stroke" data-view-type="laser" d="M 32.9998 -371.2697 L 32.9998 -374.2697 L 32.9899 -374.5158 L 32.9606 -374.7563 L 32.9126 -374.9906 L 32.8469 -375.2179 L 32.7641 -375.4374 L 32.6650 -375.6484 L 32.5503 -375.8500 L 32.4210 -376.0415 L 32.2776 -376.2221 L 32.1211 -376.3910 L 31.9522 -376.5475 L 31.7716 -376.6909 L 31.5801 -376.8202 L 31.3785 -376.9348 L 31.1675 -377.0339 L 30.9480 -377.1167 L 30.7207 -377.1825 L 30.4864 -377.2304 L 30.2459 -377.2597 L 29.9998 -377.2697 L 26.9998 -377.2697 L 26.7537 -377.2597 L 26.5131 -377.2304 L 26.2788 -377.1825 L 26.0515 -377.1167 L 25.8320 -377.0339 L 25.6210 -376.9348 L 25.4194 -376.8202 L 25.2280 -376.6909 L 25.0474 -376.5475 L 24.8784 -376.3910 L 24.7219 -376.2221 L 24.5786 -376.0415 L 24.4492 -375.8500 L 24.3346 -375.6484 L 24.2356 -375.4374 L 24.1528 -375.2179 L 24.0870 -374.9906 L 24.0391 -374.7563 L 24.0098 -374.5158 L 23.9998 -374.2697 L 23.9998 -371.2697 L 24.0098 -371.0237 L 24.0391 -370.7831 L 24.0870 -370.5488 L 24.1528 -370.3215 L 24.2356 -370.1020 L 24.3346 -369.8911 L 24.4492 -369.6895 L 24.5786 -369.4980 L 24.7219 -369.3174 L 24.8784 -369.1484 L 25.0474 -368.9919 L 25.2280 -368.8486 L 25.4194 -368.7192 L 25.6210 -368.6046 L 25.8320 -368.5055 L 26.0515 -368.4227 L 26.2788 -368.3569 L 26.5131 -368.3090 L 26.7537 -368.2797 L 26.9998 -368.2697 L 29.9998 -368.2697 L 30.2459 -368.2797 L 30.4864 -368.3090 L 30.7207 -368.3569 L 30.9480 -368.4227 L 31.1675 -368.5055 L 31.3785 -368.6046 L 31.5801 -368.7192 L 31.7716 -368.8486 L 31.9522 -368.9919 L 32.1211 -369.1484 L 32.2776 -369.3174 L 32.4210 -369.4980 L 32.5503 -369.6895 L 32.6650 -369.8911 L 32.7641 -370.1020 L 32.8469 -370.3215 L 32.9126 -370.5488 L 32.9606 -370.7831 L 32.9899 -371.0237 L 32.9998 -371.2697 " fill-rule="nonzero"></path><path transform="matrix(1,0,0,1,137.729401,520.521285)" stroke="#ff7f56" fill="none" vector-effect="non-scaling-stroke" data-view-type="laser" d="M 32.9998 -359.2699 L 32.9998 -362.2700 L 32.9899 -362.5160 L 32.9606 -362.7566 L 32.9126 -362.9909 L 32.8469 -363.2182 L 32.7641 -363.4377 L 32.6650 -363.6486 L 32.5503 -363.8502 L 32.4210 -364.0417 L 32.2776 -364.2223 L 32.1211 -364.3913 L 31.9522 -364.5478 L 31.7716 -364.6911 L 31.5801 -364.8205 L 31.3785 -364.9351 L 31.1675 -365.0342 L 30.9480 -365.1170 L 30.7207 -365.1828 L 30.4864 -365.2307 L 30.2459 -365.2600 L 29.9998 -365.2699 L 26.9998 -365.2699 L 26.7537 -365.2600 L 26.5131 -365.2307 L 26.2788 -365.1828 L 26.0515 -365.1170 L 25.8320 -365.0342 L 25.6210 -364.9351 L 25.4194 -364.8205 L 25.2280 -364.6911 L 25.0474 -364.5478 L 24.8784 -364.3913 L 24.7219 -364.2223 L 24.5786 -364.0417 L 24.4492 -363.8502 L 24.3346 -363.6486 L 24.2356 -363.4377 L 24.1528 -363.2182 L 24.0870 -362.9909 L 24.0391 -362.7566 L 24.0098 -362.5160 L 23.9998 -362.2700 L 23.9998 -359.2699 L 24.0098 -359.0239 L 24.0391 -358.7834 L 24.0870 -358.5491 L 24.1528 -358.3218 L 24.2356 -358.1023 L 24.3346 -357.8914 L 24.4492 -357.6898 L 24.5786 -357.4983 L 24.7219 -357.3177 L 24.8784 -357.1487 L 25.0474 -356.9922 L 25.2280 -356.8488 L 25.4194 -356.7195 L 25.6210 -356.6048 L 25.8320 -356.5057 L 26.0515 -356.4229 L 26.2788 -356.3572 L 26.5131 -356.3092 L 26.7537 -356.2799 L 26.9998 -356.2700 L 29.9998 -356.2700 L 30.2459 -356.2799 L 30.4864 -356.3092 L 30.7207 -356.3572 L 30.9480 -356.4229 L 31.1675 -356.5057 L 31.3785 -356.6048 L 31.5801 -356.7195 L 31.7716 -356.8488 L 31.9522 -356.9922 L 32.1211 -357.1487 L 32.2776 -357.3177 L 32.4210 -357.4983 L 32.5503 -357.6898 L 32.6650 -357.8914 L 32.7641 -358.1023 L 32.8469 -358.3218 L 32.9126 -358.5491 L 32.9606 -358.7834 L 32.9899 -359.0239 L 32.9998 -359.2699 " fill-rule="nonzero"></path><path transform="matrix(1,0,0,1,137.729401,520.521285)" stroke="#ff7f56" fill="none" vector-effect="non-scaling-stroke" data-view-type="laser" d="M 95.5713 -461.8010 L 80.7716 -461.8010 L 80.7716 -464.8010 L 65.3712 -464.8010 L 65.3712 -461.8010 L 50.5717 -461.8010 L 50.5717 -450.0009 L 47.5718 -450.0009 L 47.5718 -434.6012 L 50.5717 -434.6012 L 50.5717 -422.8011 L 65.3712 -422.8011 L 65.3712 -419.8012 L 80.7716 -419.8012 L 80.7716 -422.8011 L 95.5713 -422.8011 L 95.5712 -434.6012 L 98.5710 -434.6012 L 98.5710 -450.0009 L 95.5712 -450.0009 L 95.5713 -461.8010 " fill-rule="nonzero"></path><path transform="matrix(1,0,0,1,137.729401,520.521285)" stroke="#ff7f56" fill="none" vector-effect="non-scaling-stroke" data-view-type="laser" d="M 65.5717 -380.4448 L 50.5717 -380.4448 L 50.5717 -391.4945 L 47.5718 -391.4945 L 47.5718 -406.8943 L 50.5717 -406.8943 L 50.5717 -417.9441 L 95.5713 -417.9441 L 95.5713 -406.8943 L 98.5711 -406.8943 L 98.5711 -391.4945 L 95.5713 -391.4945 L 95.5713 -380.4448 L 80.5713 -380.4448 L 80.5713 -383.4446 L 65.5717 -383.4446 L 65.5717 -380.4448 " fill-rule="nonzero"></path><path transform="matrix(1,0,0,1,137.729401,520.521285)" stroke="#ff7f56" fill="none" vector-effect="non-scaling-stroke" data-view-type="laser" d="M 65.5717 -341.0203 L 50.5717 -341.0203 L 50.5717 -352.0699 L 47.5718 -352.0699 L 47.5718 -367.4697 L 50.5717 -367.4697 L 50.5717 -378.5195 L 95.5713 -378.5195 L 95.5713 -367.4697 L 98.5711 -367.4697 L 98.5711 -352.0699 L 95.5713 -352.0699 L 95.5713 -341.0203 L 80.5713 -341.0203 L 80.5713 -344.0201 L 65.5717 -344.0201 L 65.5717 -341.0203 " fill-rule="nonzero"></path><path transform="matrix(1,0,0,1,137.729401,520.521285)" stroke="#ff7f56" fill="none" vector-effect="non-scaling-stroke" data-view-type="laser" d="M 162.2706 -429.9817 L 162.2704 -461.8010 L 139.4710 -461.8010 L 139.4710 -464.8010 L 124.0711 -464.8010 L 124.0711 -461.8010 L 101.2717 -461.8010 L 101.2716 -429.9817 C 101.2769 -429.8450 101.2825 -429.7083 101.2880 -429.5716 L 101.3369 -429.1707 L 101.4167 -428.7801 L 101.5263 -428.4013 L 101.6643 -428.0355 L 101.8295 -427.6839 L 102.0205 -427.3479 L 102.2361 -427.0287 L 102.4750 -426.7277 L 102.7358 -426.4461 L 103.0174 -426.1853 L 103.3184 -425.9464 L 103.6376 -425.7308 L 103.9736 -425.5397 L 104.3251 -425.3746 L 104.6910 -425.2365 L 105.0698 -425.1270 L 105.4603 -425.0471 L 105.8613 -424.9982 L 106.2714 -424.9816 L 157.2707 -424.9816 L 157.6808 -424.9982 L 158.0818 -425.0471 L 158.4724 -425.1270 L 158.8512 -425.2365 L 159.2170 -425.3746 L 159.5686 -425.5397 L 159.9046 -425.7308 L 160.2238 -425.9464 L 160.5248 -426.1853 L 160.8064 -426.4461 L 161.0672 -426.7277 L 161.3061 -427.0287 L 161.5217 -427.3479 L 161.7127 -427.6839 L 161.8779 -428.0355 L 162.0159 -428.4013 L 162.1255 -428.7801 L 162.2054 -429.1707 L 162.2542 -429.5716 C 162.2598 -429.7083 162.2653 -429.8450 162.2706 -429.9817 " fill-rule="nonzero"></path><path transform="matrix(1,0,0,1,137.729401,520.521285)" stroke="#ff7f56" fill="none" vector-effect="non-scaling-stroke" data-view-type="laser" d="M 101.2714 -388.3341 L 101.2716 -423.1533 L 124.2709 -423.1533 L 124.2709 -420.1534 L 139.2709 -420.1534 L 139.2709 -423.1533 L 162.2702 -423.1533 L 162.2704 -388.3341 C 162.2651 -388.1974 162.2596 -388.0607 162.2540 -387.9240 L 162.2052 -387.5231 L 162.1253 -387.1325 L 162.0157 -386.7537 L 161.8777 -386.3878 L 161.7125 -386.0363 L 161.5215 -385.7003 L 161.3059 -385.3811 L 161.0670 -385.0801 L 160.8062 -384.7985 L 160.5246 -384.5376 L 160.2236 -384.2987 L 159.9044 -384.0831 L 159.5684 -383.8921 L 159.2168 -383.7269 L 158.8510 -383.5889 L 158.4722 -383.4793 L 158.0816 -383.3994 L 157.6806 -383.3506 L 157.2705 -383.3340 L 106.2713 -383.3340 L 105.8612 -383.3506 L 105.4602 -383.3994 L 105.0697 -383.4793 L 104.6908 -383.5889 L 104.3250 -383.7269 L 103.9734 -383.8921 L 103.6374 -384.0831 L 103.3183 -384.2987 L 103.0172 -384.5376 L 102.7357 -384.7985 L 102.4748 -385.0801 L 102.2359 -385.3811 L 102.0203 -385.7003 L 101.8293 -386.0363 L 101.6641 -386.3878 L 101.5261 -386.7537 L 101.4165 -387.1325 L 101.3366 -387.5231 L 101.2878 -387.9240 C 101.2823 -388.0607 101.2767 -388.1974 101.2714 -388.3341 " fill-rule="nonzero"></path><path transform="matrix(1,0,0,1,137.729401,520.521285)" stroke="#ff7f56" fill="none" vector-effect="non-scaling-stroke" data-view-type="laser" d="M 106.3214 -438.5915 L 109.2213 -438.5915 L 109.2213 -453.1913 L 106.3214 -453.1913 L 106.3214 -438.5915 " fill-rule="nonzero"></path><path transform="matrix(1,0,0,1,137.729401,520.521285)" stroke="#ff7f56" fill="none" vector-effect="non-scaling-stroke" data-view-type="laser" d="M 106.3212 -396.9438 L 109.2211 -396.9438 L 109.2211 -411.5438 L 106.3212 -411.5438 L 106.3212 -396.9438 " fill-rule="nonzero"></path><path transform="matrix(1,0,0,1,137.729401,520.521285)" stroke="#ff7f56" fill="none" vector-effect="non-scaling-stroke" data-view-type="laser" d="M 129.7710 -456.8011 L 129.7777 -456.9652 L 129.7972 -457.1255 L 129.8292 -457.2818 L 129.8730 -457.4333 L 129.9282 -457.5796 L 129.9943 -457.7203 L 130.0707 -457.8547 L 130.1570 -457.9823 L 130.2525 -458.1027 L 130.3569 -458.2154 L 130.4695 -458.3197 L 130.5899 -458.4153 L 130.7176 -458.5016 L 130.8520 -458.5780 L 130.9926 -458.6441 L 131.1390 -458.6993 L 131.2905 -458.7431 L 131.4467 -458.7751 L 131.6071 -458.7946 L 131.7711 -458.8012 L 131.9351 -458.7946 L 132.0955 -458.7751 L 132.2517 -458.7431 L 132.4032 -458.6993 L 132.5496 -458.6441 L 132.6902 -458.5780 L 132.8246 -458.5016 L 132.9522 -458.4153 L 133.0727 -458.3197 L 133.1853 -458.2154 L 133.2896 -458.1027 L 133.3852 -457.9823 L 133.4714 -457.8547 L 133.5479 -457.7203 L 133.6139 -457.5796 L 133.6691 -457.4333 L 133.7130 -457.2818 L 133.7449 -457.1255 L 133.7645 -456.9652 L 133.7711 -456.8011 L 133.7645 -456.6372 L 133.7449 -456.4769 L 133.7130 -456.3207 L 133.6691 -456.1692 L 133.6139 -456.0229 L 133.5479 -455.8823 L 133.4714 -455.7479 L 133.3852 -455.6202 L 133.2896 -455.4998 L 133.1853 -455.3872 L 133.0727 -455.2828 L 132.9522 -455.1872 L 132.8246 -455.1010 L 132.6902 -455.0246 L 132.5496 -454.9585 L 132.4032 -454.9032 L 132.2517 -454.8594 L 132.0955 -454.8274 L 131.9351 -454.8079 L 131.7711 -454.8012 L 131.6071 -454.8079 L 131.4467 -454.8274 L 131.2905 -454.8594 L 131.1390 -454.9032 L 130.9926 -454.9585 L 130.8520 -455.0246 L 130.7176 -455.1010 L 130.5899 -455.1872 L 130.4695 -455.2828 L 130.3569 -455.3872 L 130.2525 -455.4998 L 130.1570 -455.6202 L 130.0707 -455.7479 L 129.9943 -455.8823 L 129.9282 -456.0229 L 129.8730 -456.1692 L 129.8292 -456.3207 L 129.7972 -456.4769 L 129.7777 -456.6372 L 129.7710 -456.8011 " fill-rule="nonzero"></path><path transform="matrix(1,0,0,1,137.729401,520.521285)" stroke="#ff7f56" fill="none" vector-effect="non-scaling-stroke" data-view-type="laser" d="M 133.7710 -415.1536 L 133.7644 -415.3176 L 133.7448 -415.4780 L 133.7129 -415.6342 L 133.6690 -415.7857 L 133.6138 -415.9320 L 133.5477 -416.0727 L 133.4713 -416.2071 L 133.3851 -416.3347 L 133.2895 -416.4551 L 133.1851 -416.5678 L 133.0725 -416.6721 L 132.9521 -416.7677 L 132.8244 -416.8539 L 132.6900 -416.9303 L 132.5494 -416.9964 L 132.4030 -417.0516 L 132.2515 -417.0955 L 132.0953 -417.1274 L 131.9349 -417.1470 L 131.7709 -417.1536 L 131.6069 -417.1470 L 131.4465 -417.1274 L 131.2903 -417.0955 L 131.1388 -417.0516 L 130.9924 -416.9964 L 130.8518 -416.9303 L 130.7174 -416.8539 L 130.5897 -416.7677 L 130.4693 -416.6721 L 130.3567 -416.5678 L 130.2523 -416.4551 L 130.1568 -416.3347 L 130.0705 -416.2071 L 129.9941 -416.0727 L 129.9280 -415.9320 L 129.8728 -415.7857 L 129.8290 -415.6342 L 129.7970 -415.4780 L 129.7775 -415.3176 L 129.7708 -415.1536 L 129.7775 -414.9896 L 129.7970 -414.8293 L 129.8290 -414.6731 L 129.8728 -414.5216 L 129.9280 -414.3753 L 129.9941 -414.2347 L 130.0705 -414.1003 L 130.1568 -413.9726 L 130.2523 -413.8522 L 130.3567 -413.7396 L 130.4693 -413.6352 L 130.5897 -413.5397 L 130.7174 -413.4534 L 130.8518 -413.3770 L 130.9924 -413.3109 L 131.1388 -413.2557 L 131.2903 -413.2118 L 131.4465 -413.1799 L 131.6069 -413.1603 L 131.7709 -413.1537 L 131.9349 -413.1603 L 132.0953 -413.1799 L 132.2515 -413.2118 L 132.4030 -413.2557 L 132.5494 -413.3109 L 132.6900 -413.3770 L 132.8244 -413.4534 L 132.9521 -413.5397 L 133.0725 -413.6352 L 133.1851 -413.7396 L 133.2895 -413.8522 L 133.3851 -413.9726 L 133.4713 -414.1003 L 133.5477 -414.2347 L 133.6138 -414.3753 L 133.6690 -414.5216 L 133.7129 -414.6731 L 133.7448 -414.8293 L 133.7644 -414.9896 L 133.7710 -415.1536 " fill-rule="nonzero"></path><path transform="matrix(1,0,0,1,137.729401,520.521285)" stroke="#ff7f56" fill="none" vector-effect="non-scaling-stroke" data-view-type="laser" d="M 157.2208 -438.5915 L 154.3209 -438.5915 L 154.3209 -453.1913 L 157.2208 -453.1913 L 157.2208 -438.5915 " fill-rule="nonzero"></path><path transform="matrix(1,0,0,1,137.729401,520.521285)" stroke="#ff7f56" fill="none" vector-effect="non-scaling-stroke" data-view-type="laser" d="M 157.2206 -396.9438 L 154.3207 -396.9438 L 154.3207 -411.5438 L 157.2206 -411.5438 L 157.2206 -396.9438 " fill-rule="nonzero"></path></svg>